<svg data-v-70b83f88="" version="1.0" xmlns="http://www.w3.org/2000/svg" xmlns:xlink="http://www.w3.org/1999/xlink"
     width="100%" height="100%" viewBox="0 0 560.000000 280.000000" preserveAspectRatio="xMidYMid meet"
     color-interpolation-filters="sRGB" style="margin: auto;">
  <rect data-v-70b83f88="" x="0" y="0" width="100%" height="100%" fill="none" fill-opacity="1"
        class="background"></rect> <!---->
  <g data-v-70b83f88="" fill=" rgb(27, 74, 156)" class="icon-text-wrapper icon-svg-group iconsvg"
     transform=" scale(3) translate(0,0)">
    <g class="iconsvg-imagesvg" transform="translate(0,0)">
      <g>
        <rect fill=" rgb(233, 148, 91)" fill-opacity="0" stroke-width="2" x="0" y="0" width="60" height="92.39582370876838"
              class="image-rect"></rect>
        <svg fill = "#E9945B"  x="0" y="0" width="60" height="92.39582370876838"
             filtersec="colorsf5863186371" class="image-svg-svg primary" style="overflow: visible;">
          <svg xmlns="http://www.w3.org/2000/svg" xmlns:xlink="http://www.w3.org/1999/xlink" version="1.1" x="0px" y="0px" viewBox="23.69999885559082 9.5 52.600006103515625 81" enable-background="new 0 0 100 100" xml:space="preserve"><path d="M59.4,68.7c7.7-9.1,16.9-23.5,16.9-32.9C76.3,21.3,64.5,9.5,50,9.5S23.7,21.3,23.7,35.8c0,9.4,9.3,23.8,16.9,32.9  c-9.9,1.6-16.9,5.7-16.9,10.5c0,6.2,11.8,11.3,26.3,11.3s26.3-5.1,26.3-11.3C76.3,74.5,69.3,70.4,59.4,68.7z M50,23.5  c6.3,0,11.3,5.1,11.3,11.3S56.3,46.2,50,46.2s-11.3-5.1-11.3-11.3S43.7,23.5,50,23.5z M50,84.9c-11.2,0-20.3-3.8-20.3-8.5  c0-3.3,4.5-6.1,11-7.6c4.2,4.9,7.9,8.3,9.3,8.3s5.1-3.3,9.3-8.3c6.5,1.4,11,4.3,11,7.6C70.3,81.1,61.2,84.9,50,84.9z"></path></svg>
        </svg>
        <defs>
          <filter id="colors785966606">
            <feColorMatrix type="matrix" values="0 0 0 0 0.74609375  0 0 0 0 0.50390625  0 0 0 0 0.49609375  0 0 0 1 0"
                           class="icon-fecolormatrix"></feColorMatrix>
          </filter>
          <filter id="colorsf5863186371">
            <feColorMatrix type="matrix" values="0 0 0 0 0.99609375  0 0 0 0 0.99609375  0 0 0 0 0.99609375  0 0 0 1 0"
                           class="icon-fecolormatrix"></feColorMatrix>
          </filter>
          <filter id="colorsb5501046249">
            <feColorMatrix type="matrix" values="0 0 0 0 0  0 0 0 0 0  0 0 0 0 0  0 0 0 1 0"
                           class="icon-fecolormatrix"></feColorMatrix>
          </filter>
        </defs>
      </g>
    </g>
    <g transform="translate(67,15.686500549316406)">
      <g data-gra="path-name" fill-rule="" class="tp-name iconsvg-namesvg">
        <g transform="scale(1)">
          <g>
            <path
              d="M20.09-19.63L23.2-19.63Q26.18-19.63 27.93-21.45 29.68-23.26 29.68-25.89 29.68-28.51 28.02-29.84 26.37-31.17 23.78-31.17L23.78-31.17 21.19-31.17 20.09-19.63ZM27.28-11.34L27.28-11.34 19.24-11.34 18.14 0 5.51 0 1.62-39.27 30.52-39.27Q37.32-39.27 41.57-35.8 45.81-32.33 45.81-25.85L45.81-25.85Q45.81-21.9 44.22-18.98 42.63-16.07 39.91-14.45L39.91-14.45Q34.67-11.34 27.28-11.34ZM64.28 0L51.64 0 47.75-39.27 68.16-39.27 64.28 0ZM71.4-39.27L93.76-39.27 105.23-16.39 103.41-39.27 118.38-39.27 115.14 0 96.16 0 85.27-21.38 83.13 0 74.64 0 71.4-39.27Z"
              transform="translate(-1.6200000047683716, 39.27000045776367)"></path>
          </g> <!----> <!----> <!----> <!----> <!----> <!---->
          <g data-gra="path-name-1" fill=" rgb(27, 74, 156)" transform="translate(0,42.27000045776367)">
            <g transform="scale(0.9844)">
              <path
                d="M9.59-9.37L11.07-9.37Q12.49-9.37 13.33-10.24 14.16-11.1 14.16-12.36 14.16-13.61 13.38-14.24 12.59-14.88 11.35-14.88L11.35-14.88 10.11-14.88 9.59-9.37ZM13.02-5.41L13.02-5.41 9.19-5.41 8.66 0 2.63 0 0.77-18.74 14.57-18.74Q17.81-18.74 19.84-17.09 21.87-15.43 21.87-12.34L21.87-12.34Q21.87-10.45 21.11-9.06 20.35-7.67 19.05-6.9L19.05-6.9Q16.55-5.41 13.02-5.41ZM30.68 0L24.65 0 22.79-18.74 32.54-18.74 30.68 0ZM34.08-18.74L44.75-18.74 50.23-7.82 49.36-18.74 56.51-18.74 54.96 0 45.9 0 40.7-10.21 39.68 0 35.63 0 34.08-18.74ZM58.05-18.74L68.72-18.74 74.2-7.82 73.33-18.74 80.47-18.74 78.93 0 69.87 0 64.67-10.21 63.65 0 59.6 0 58.05-18.74ZM91.27-7.36L91.27-7.21Q91.27-5.32 91.89-4.65 92.51-3.99 93.43-3.99L93.43-3.99Q94.89-3.99 96.37-4.48L96.37-4.48 96.84-4.64 98.16-1.98Q97.89-1.73 97.33-1.35 96.77-0.96 94.84-0.32 92.91 0.31 90.85 0.31 88.79 0.31 87.4-0.28 86.01-0.87 85.27-1.65 84.53-2.44 84.06-3.76 83.6-5.07 83.46-6 83.32-6.93 83.23-8.32L83.23-8.32 82.48-18.74 96.4-18.74 97.27-15.03 92.01-14.57 91.7-11.57 95.85-11.57 96.46-8.66 91.27-7.36ZM107.26-3.12L107.44-3.12Q109.58-3.12 110.75-5.38 111.93-7.64 111.93-10.13 111.93-12.62 111.03-14.1 110.13-15.59 108.71-15.59L108.71-15.59 108.53-15.59 107.26-3.12ZM107.32 0L107.32 0 101.26 0 99.4-18.74 108.53-18.74Q115.42-18.74 118.02-14.97L118.02-14.97Q119.38-12.96 119.38-10.21L119.38-10.21Q119.38 0 107.32 0Z"
                transform="translate(-0.7699999809265137, 18.739999771118164)"></path>
            </g>
          </g>
        </g>
      </g> <!----></g>
  </g>
  <defs v-gra="od"></defs>
</svg>
